<?xml version="1.0" encoding="UTF-8" standalone="no"?>
<svg
   width="270"
   height="213"
   viewBox="0 0 270 213"
   fill="none"
   version="1.1"
   id="svg44"
   sodipodi:docname="vector.svg"
   xml:space="preserve"
   inkscape:version="1.3 (0e150ed6c4, 2023-07-21)"
   xmlns:inkscape="http://www.inkscape.org/namespaces/inkscape"
   xmlns:sodipodi="http://sodipodi.sourceforge.net/DTD/sodipodi-0.dtd"
   xmlns="http://www.w3.org/2000/svg"
   xmlns:svg="http://www.w3.org/2000/svg"><defs
     id="defs44" /><sodipodi:namedview
     id="namedview44"
     pagecolor="#ffffff"
     bordercolor="#000000"
     borderopacity="0.25"
     inkscape:showpageshadow="2"
     inkscape:pageopacity="0.0"
     inkscape:pagecheckerboard="0"
     inkscape:deskcolor="#d1d1d1"
     inkscape:zoom="1.1255467"
     inkscape:cx="151.48194"
     inkscape:cy="114.16674"
     inkscape:window-width="1280"
     inkscape:window-height="771"
     inkscape:window-x="0"
     inkscape:window-y="0"
     inkscape:window-maximized="1"
     inkscape:current-layer="svg44" /><path
     d="m 81.2819,201.618 5.6802,-0.001 2.7021,-21.847 h -8.3834 z"
     fill="#a0616a"
     id="path1" /><path
     d="m 88.8523,202.127 v -3.84 l -1.4934,0.091 -6.0789,0.359 -1.4069,0.086 -1.0756,12.861 -0.0576,0.689 h 4.0334 l 0.1297,-0.684 0.5858,-3.113 1.5125,3.113 0.3313,0.684 H 96.026 c 0.6364,-0.004 1.2454,-0.258 1.6949,-0.707 0.4495,-0.449 0.7032,-1.057 0.706,-1.692 0.4513,-2.101 -8.4414,-6.645 -9.5746,-7.847 z"
     fill="#2f2e41"
     id="path2" /><path
     d="m 43.046,196.284 5.225,2.221 11.0813,-19.039 -7.7117,-3.279 z"
     fill="#a0616a"
     id="path3" /><path
     d="m 49.8091,199.714 1.5108,-3.533 -1.4094,-0.5 -5.7329,-2.048 -1.328,-0.471 -6.0492,11.409 -0.3242,0.611 3.71,1.578 0.3887,-0.579 1.7633,-2.633 0.1668,3.454 0.0354,0.759 9.8361,4.183 c 0.5869,0.246 1.2471,0.25 1.8373,0.013 0.5902,-0.237 1.0627,-0.697 1.3148,-1.28 1.2422,-1.757 -5.15,-9.415 -5.7195,-10.963 z"
     fill="#2f2e41"
     id="path4" /><path
     d="M 75.8792,18.8428 H 54.3607 v 25.5163 h 21.5185 z"
     fill="#2f2e41"
     id="path5" /><path
     d="M 77.624,93.3622 54.6515,93.0723 c 0,0 -10.3231,9.7137 -1.3086,26.2407 l 3.1987,40.595 -15.6833,21.815 18.882,13.559 11.9225,-33.055 -0.3881,-19.526 5.4769,10.683 -3.6349,40.159 25.5897,-0.58 -6.8567,-40.49 L 77.624,109.31 Z"
     fill="#2f2e41"
     id="path6" /><path
     d="m 88.7632,70.1655 4.1274,5.509 h 13.0854 l 2.036,6.9591 -21.7947,-0.4349 -3.5044,-11.4536 z"
     fill="#a0616a"
     id="path7" /><path
     d="m 38.8034,75.2393 -4.9436,11.8884 -1.1633,16.2373 5.8158,2.191 6.417,-28.1624 z"
     fill="#a0616a"
     id="path8" /><path
     d="m 69.0456,40.1543 -8.7237,0.29 -8.7432,8.908 c 0,0 -9.7221,6.6047 -6.5234,17.0432 1.5262,4.9804 3.2651,5.4582 5.2746,12.4801 0.5858,2.0473 1.1453,4.0101 1.6509,5.7883 0.3794,1.3346 1.8355,2.8535 1.0358,3.6499 -3.466,3.4515 0.3023,4.8913 1.3441,4.7578 0.8114,5.5777 8.9857,5.3323 23.4087,0.145 2.6826,-1.8403 3.1151,-3.3488 1.1634,-4.5055 l 0.8076,-3.1276 4.8878,-18.9291 c 0,0 1.3165,-7.5497 -5.4049,-11.4223 l -3.9387,-5.8798 z"
     fill="#e6e6e6"
     id="path9" /><path
     d="m 44.6607,58.132 c -1.6353,6.1937 -4.3978,6.9978 -6.0754,13.4289 -0.3813,0.0089 -0.7572,0.0919 -1.1067,0.2443 -0.2666,0.1103 -0.4909,0.303 -0.6398,0.5496 -0.149,0.2467 -0.2148,0.5344 -0.1879,0.8211 0.1039,0.5317 0.6403,0.9745 0.5318,1.5054 -0.0816,0.3993 -0.4893,0.6267 -0.7855,0.9074 -0.3135,0.3113 -0.517,0.7157 -0.58,1.1524 -0.063,0.4366 0.018,0.8819 0.2308,1.2686 0.1658,0.2794 0.3998,0.5123 0.6802,0.6772 -0.4311,1.656 -0.6874,2.6417 -0.6874,2.6417 l 7.2697,2.7546 11.4863,-23.8085 0.5816,-8.8118 c 0,0 -7.6555,-4.9292 -10.7177,6.6691 z"
     fill="#e6e6e6"
     id="path10" /><path
     d="m 93.3267,74.5148 c 0,0 -2.0326,0.2107 -3.9121,-5.8014 -1.3043,-4.172 -2.0932,-1.2185 -2.9942,-4.782 -2.1991,-8.6988 -7.9967,-7.249 -7.9967,-7.249 l -2.9806,7.8289 6.6547,11.0595 c -0.3168,0.3433 -0.5572,0.7496 -0.7054,1.1921 -0.092,0.2729 -0.0941,0.568 -0.0057,0.8421 0.0883,0.2742 0.2623,0.5129 0.4965,0.6812 0.47,0.2719 1.1573,0.1603 1.4869,0.591 0.2479,0.324 0.1514,0.7798 0.1686,1.187 0.0289,0.4402 0.2004,0.8591 0.4888,1.1936 0.2883,0.3346 0.6779,0.5667 1.11,0.6613 0.2549,0.0463 0.5166,0.0398 0.7688,-0.019 l 0.4414,0.7335 z"
     fill="#e6e6e6"
     id="path11" /><path
     d="m 108.739,82.9233 c 2.409,0 4.362,-1.9472 4.362,-4.3493 0,-2.4021 -1.953,-4.3494 -4.362,-4.3494 -2.409,0 -4.362,1.9473 -4.362,4.3494 0,2.4021 1.953,4.3493 4.362,4.3493 z"
     fill="#a0616a"
     id="path12" /><path
     d="m 34.5868,111.049 c 2.409,0 4.3619,-1.947 4.3619,-4.349 0,-2.402 -1.9529,-4.349 -4.3619,-4.349 -2.4089,0 -4.3618,1.947 -4.3618,4.349 0,2.402 1.9529,4.349 4.3618,4.349 z"
     fill="#a0616a"
     id="path13" /><path
     d="m 64.6346,38.245 c 5.6184,0 10.1731,-4.5416 10.1731,-10.144 0,-5.6024 -4.5547,-10.144 -10.1731,-10.144 -5.6185,0 -10.1732,4.5416 -10.1732,10.144 0,5.6024 4.5547,10.144 10.1732,10.144 z"
     fill="#a0616a"
     id="path14" /><path
     d="m 57.641,29.1669 c 0.0914,-0.0991 0.159,-0.2175 0.1979,-0.3464 0.0389,-0.1289 0.0481,-0.2648 0.0268,-0.3977 -0.0214,-0.1329 -0.0726,-0.2593 -0.1498,-0.3697 -0.0773,-0.1103 -0.1786,-0.2018 -0.2964,-0.2675 -0.2516,-0.1126 -0.533,-0.141 -0.8021,-0.0809 -0.2691,0.06 -0.5116,0.2052 -0.6911,0.4139 -0.3503,0.4297 -0.5334,0.9709 -0.5158,1.5244 -0.0359,2.3676 2.0087,4.2832 2.4193,6.6155 0.2628,1.4924 -0.1673,3.0099 -0.5932,4.4643 l -1.5384,5.2534 -7.4129,-0.052 c 0.2306,-1.3745 0.8819,-2.6442 1.8646,-3.6351 -1.2118,-0.236 -2.3072,0.6836 -3.2426,1.4873 -0.9354,0.8036 -2.1956,1.5968 -3.3234,1.0957 -0.3763,-0.2035 -0.6899,-0.5054 -0.9069,-0.8734 -0.217,-0.3679 -0.3293,-0.7879 -0.3248,-1.2147 -0.0325,-0.8505 0.9304,-1.7309 0.5292,-2.4822 -3.8189,-7.1522 8.345,-25.0987 14.8433,-24.7066 1.3201,-2.1028 3.8206,-3.2846 6.3035,-3.441 2.483,-0.1563 4.9472,0.6018 7.1818,1.6926 2.6842,1.3102 5.1567,3.1443 6.9027,5.5629 1.746,2.4185 2.7194,5.4545 2.354,8.4122 -0.2485,2.0108 -1.0855,3.8936 -1.7126,5.8207 -0.627,1.9271 -1.0454,4.0289 -0.4427,5.9638 0.2785,0.8943 0.7706,1.736 0.8484,2.6692 0.1403,1.6836 -1.1517,3.2231 -2.694,3.9224 -1.5423,0.6993 -3.2914,0.7412 -4.9854,0.7712 0.6409,-1.5529 1.2156,-3.5276 0.0601,-4.7492 -0.8239,-0.8711 0.6313,-3.0301 -0.0523,-4.0145 -0.491,-0.7071 0.8633,-2.0398 1.1923,-2.8349 0.4073,-0.8188 0.8943,-1.5957 1.454,-2.3196 2.2188,-3.2318 0.0678,-6.9258 -0.8724,-10.7285 -3.5665,1.1259 -8.9517,2.7862 -12.2435,1.0139 -0.1899,2.4272 -1.2855,4.6953 -3.0703,6.3565"
     fill="#2f2e41"
     id="path15" /><path
     d="m 131.814,97.8708 c -4.532,0 -8.962,-1.3401 -12.73,-3.8508 -3.769,-2.5107 -6.706,-6.0792 -8.44,-10.2544 -1.735,-4.1751 -2.188,-8.7693 -1.304,-13.2017 0.884,-4.4323 3.066,-8.5036 6.271,-11.6991 3.205,-3.1956 7.288,-5.3717 11.733,-6.2534 4.445,-0.8816 9.052,-0.4291 13.24,1.3003 4.187,1.7294 7.766,4.658 10.283,8.4156 2.518,3.7575 3.862,8.1751 3.862,12.6943 -0.007,6.0579 -2.423,11.8657 -6.719,16.1493 -4.296,4.2835 -10.12,6.6931 -16.196,6.6999 z"
     fill="#ffffff"
     id="path16" /><path
     d="m 131.814,97.8708 c -4.532,0 -8.962,-1.3401 -12.73,-3.8508 -3.769,-2.5107 -6.706,-6.0792 -8.44,-10.2544 -1.735,-4.1751 -2.188,-8.7693 -1.304,-13.2017 0.884,-4.4323 3.066,-8.5036 6.271,-11.6991 3.205,-3.1956 7.288,-5.3717 11.733,-6.2534 4.445,-0.8816 9.052,-0.4291 13.24,1.3003 4.187,1.7294 7.766,4.658 10.283,8.4156 2.518,3.7575 3.862,8.1751 3.862,12.6943 -0.007,6.0579 -2.423,11.8657 -6.719,16.1493 -4.296,4.2835 -10.12,6.6931 -16.196,6.6999 z m 0,-44.9368 c -4.381,0 -8.663,1.2954 -12.306,3.7224 -3.643,2.4271 -6.482,5.8767 -8.159,9.9126 -1.676,4.036 -2.115,8.4771 -1.26,12.7617 0.855,4.2845 2.964,8.2202 6.062,11.3092 3.098,3.089 7.045,5.1926 11.342,6.0449 4.297,0.8522 8.751,0.4148 12.798,-1.2569 4.048,-1.6718 7.507,-4.5028 9.941,-8.1351 2.434,-3.6323 3.733,-7.9027 3.733,-12.2712 -0.006,-5.856 -2.342,-11.4702 -6.495,-15.611 -4.152,-4.1408 -9.783,-6.47 -15.656,-6.4766 z"
     fill="#e6e6e6"
     id="path17" /><path
     d="m 124.486,75.6962 c -2.889,0 -5.683,-1.0289 -7.879,-2.9012 -0.732,-0.6253 -1.513,-1.7122 -2.32,-3.2304 -0.514,-0.978 -0.803,-2.0586 -0.843,-3.1623 -0.041,-1.1038 0.167,-2.2026 0.608,-3.2156 -0.425,0.4317 -0.896,0.8166 -1.403,1.1483 l -0.257,0.1703 -0.015,-0.3069 c -0.01,-0.1996 -0.015,-0.3985 -0.015,-0.5913 0,-1.1357 0.862,-2.2883 0.465,-3.3381 -1.675,-4.4247 -6.986,-8.8221 0.711,-15.67 0.712,-0.6335 -0.239,-1.9 -0.239,-2.8584 0,-9.3929 10.235,-23.483 17.087,-17.0346 3.999,3.7641 12.332,6.438 16.222,11.6736 l 0.052,0.1551 -0.152,0.0612 c -0.777,0.3258 -1.596,0.5429 -2.433,0.6453 0.892,0.1814 1.803,0.2575 2.713,0.2266 l 0.141,-0.0049 0.035,0.1367 c 0.338,1.3545 0.509,2.7451 0.509,4.141 l -0.001,0.1508 c -0.003,1.0603 0.218,2.1093 0.649,3.0786 0.431,0.9694 1.061,1.8373 1.851,2.5473 1.247,1.134 2.244,2.5147 2.927,4.0541 0.682,1.5394 1.036,3.2037 1.037,4.8868 0,1.9913 -1.357,4.6051 -2.496,6.4473 -0.288,0.4692 -0.68,0.8672 -1.144,1.1641 -0.465,0.2969 -0.991,0.485 -1.54,0.5501 -0.519,0.0653 -1.046,0.016 -1.544,-0.1444 -0.498,-0.1604 -0.954,-0.428 -1.337,-0.7838 0.539,1.0805 1.241,2.072 2.082,2.9397 l 0.155,0.1596 -0.192,0.1121 c -1.854,1.0778 -3.962,1.6453 -6.107,1.6445 l -0.126,-4e-4 c -1.573,-0.0161 -3.134,0.2809 -4.591,0.8738 -1.457,0.5929 -2.78,1.4697 -3.893,2.5791 -1.133,1.1637 -2.488,2.0902 -3.984,2.7249 -1.497,0.6347 -3.106,0.965 -4.733,0.9714 z"
     fill="#ffb563"
     id="path18" /><path
     d="m 132.494,90.3469 c -1.115,0 -2.193,-0.3969 -3.04,-1.1193 -0.37,-0.3595 -0.673,-0.7814 -0.895,-1.2463 -0.199,-0.3773 -0.31,-0.7942 -0.326,-1.2201 -0.015,-0.4258 0.065,-0.8498 0.235,-1.2406 -0.164,0.1666 -0.346,0.3151 -0.541,0.443 l -0.099,0.0657 -0.006,-0.1184 c -0.004,-0.077 -0.006,-0.1537 -0.006,-0.2281 0,-0.4382 0.333,-0.8828 0.179,-1.2879 -0.646,-1.7071 -2.695,-3.4036 0.275,-6.0457 0.275,-0.2444 -0.092,-0.733 -0.092,-1.1028 0,-3.6239 3.948,-9.06 6.592,-6.5721 1.543,1.4522 4.758,2.4838 6.259,4.5038 l 0.02,0.0598 -0.059,0.0236 c -0.3,0.1257 -0.616,0.2095 -0.939,0.249 0.345,0.07 0.696,0.0993 1.047,0.0874 l 0.054,-0.0019 0.014,0.0528 c 0.13,0.5225 0.196,1.059 0.196,1.5976 v 0.0582 c -0.001,0.4091 0.084,0.8138 0.25,1.1878 0.166,0.374 0.41,0.7088 0.714,0.9827 0.482,0.4376 0.866,0.9703 1.13,1.5642 0.263,0.5939 0.399,1.236 0.4,1.8853 0,0.7683 -0.524,1.7768 -0.963,2.4875 -0.111,0.181 -0.262,0.3346 -0.442,0.4491 -0.179,0.1146 -0.382,0.1871 -0.594,0.2123 -0.2,0.0252 -0.403,0.0061 -0.595,-0.0558 -0.192,-0.0618 -0.369,-0.1651 -0.516,-0.3024 0.208,0.4169 0.479,0.7994 0.803,1.1342 l 0.06,0.0616 -0.074,0.0432 c -0.716,0.4159 -1.529,0.6348 -2.357,0.6345 l -0.048,-1e-4 c -0.607,-0.0063 -1.209,0.1083 -1.771,0.3371 -0.562,0.2287 -1.073,0.567 -1.502,0.995 -0.437,0.449 -0.96,0.8065 -1.537,1.0513 -0.578,0.2449 -1.199,0.3724 -1.826,0.3748 z"
     fill="#ffb563"
     id="path19" /><path
     d="m 132.713,97.4956 c -0.076,-0.453 -1.823,-11.1518 1.614,-16.4839 l 0.321,0.206 c -3.357,5.2079 -1.577,16.1053 -1.558,16.2147 z"
     fill="#3f3d56"
     id="path20" /><path
     d="m 123.516,95.1755 c -3.179,-4.1665 -4.057,-9.5598 -3.406,-14.6662 0.71,-5.5735 3.301,-10.6782 6.391,-15.3024 1.838,-2.7516 3.868,-5.3685 5.901,-7.9786 0.223,-0.287 -0.18,-0.6941 -0.406,-0.404 -3.642,4.6783 -7.335,9.4188 -9.831,14.8301 -2.266,4.9132 -3.419,10.383 -2.528,15.7727 0.455,2.9138 1.617,5.6727 3.385,8.0368 0.22,0.2887 0.718,0.0044 0.494,-0.2884 z"
     fill="#3f3d56"
     id="path21" /><path
     d="m 117.383,49.801 c 1.978,1.2315 3.402,3.178 3.974,5.4324 0.684,2.729 -0.104,5.5372 -0.842,8.1676 -0.017,0.072 -0.006,0.148 0.032,0.2118 0.038,0.0638 0.099,0.1104 0.17,0.1301 0.072,0.0197 0.149,0.0109 0.214,-0.0245 0.065,-0.0355 0.114,-0.0949 0.136,-0.1656 0.78,-2.7788 1.577,-5.7384 0.806,-8.6118 -0.637,-2.3392 -2.138,-4.3515 -4.201,-5.6332 -0.314,-0.1947 -0.602,0.2993 -0.289,0.4932 z"
     fill="#3f3d56"
     id="path22" /><path
     d="m 143.499,58.9469 c -4.88,0.3027 -9.487,2.3489 -12.977,5.7636 -0.263,0.2584 0.142,0.6623 0.405,0.4039 3.381,-3.3109 7.844,-5.2975 12.572,-5.5962 0.367,-0.0223 0.369,-0.5936 0,-0.5713 z"
     fill="#3f3d56"
     id="path23" /><path
     d="m 28.5264,209.992 c -2.758,0.243 -5.5354,-0.132 -8.1295,-1.097 -2.5941,-0.965 -4.9392,-2.496 -6.8642,-4.48 -2.517,-2.646 -4.24429,-6.052 -5.91473,-9.346 -0.48625,-0.958 -0.98888,-1.95 -1.50024,-2.9 -0.57009,-1.035 -0.81614,-2.217 -0.70644,-3.394 0.10971,-1.176 0.57015,-2.293 1.32199,-3.206 0.72049,-0.913 1.69862,-1.589 2.80835,-1.943 1.10977,-0.354 2.30017,-0.368 3.41797,-0.04 l 0.2438,0.07 2.1938,8.536 c 0.3273,-1.274 1.0297,-4.142 1.4733,-6.953 l 0.0373,-0.235 0.2185,0.097 c 2.2906,1.01 4.4445,2.305 6.4109,3.852 3.4834,2.786 6.3165,6.295 8.3025,10.283 1.986,3.988 3.0772,8.36 3.1978,12.811 l 0.0058,0.266 z"
     fill="#f2f2f2"
     id="path43" /><path
     d="M 106.914,212.883 0.454737,213 C 0.334132,213 0.218464,212.952 0.133183,212.867 0.0479027,212.782 0,212.667 0,212.547 c 0,-0.121 0.0479027,-0.236 0.133183,-0.321 0.085281,-0.085 0.200949,-0.133 0.321554,-0.133 L 106.914,211.976 c 0.12,0 0.236,0.048 0.321,0.133 0.085,0.085 0.133,0.2 0.133,0.321 0,0.12 -0.048,0.235 -0.133,0.32 -0.085,0.085 -0.201,0.133 -0.321,0.133 z"
     fill="#cacaca"
     id="path44" /><g
     style="fill:none"
     id="g44"
     transform="translate(126.34677,130.00502)"><path
       d="m 0.772188,18.84 c 0,-2.7733 0.573332,-5.24 1.720002,-7.4 1.17333,-2.18667 2.82666,-3.88 4.96,-5.08 2.13333,-1.22667 4.58671,-1.84 7.36001,-1.84 3.52,0 6.48,0.94667 8.88,2.84 2.4,1.86667 3.9467,4.4133 4.64,7.64 h -8.44 c -0.5067,-1.0667 -1.2133,-1.88 -2.12,-2.44 -0.88,-0.56 -1.9067,-0.84 -3.08,-0.84 -1.8133,0 -3.2667,0.6533 -4.36,1.96 -1.06668,1.28 -1.60001,3 -1.60001,5.16 0,2.1867 0.53333,3.9333 1.60001,5.24 1.0933,1.28 2.5467,1.92 4.36,1.92 1.1733,0 2.2,-0.28 3.08,-0.84 0.9067,-0.56 1.6133,-1.3733 2.12,-2.44 h 8.44 c -0.6933,3.2267 -2.24,5.7867 -4.64,7.68 -2.4,1.8667 -5.36,2.8 -8.88,2.8 -2.7733,0 -5.22668,-0.6 -7.36001,-1.8 C 5.31885,30.1733 3.66552,28.48 2.49219,26.32 1.34552,24.1333 0.772188,21.64 0.772188,18.84 Z M 30.7647,21.76 c 0,-2.32 0.4133,-4.3467 1.24,-6.08 0.8533,-1.7333 2,-3.0667 3.44,-4 1.4667,-0.9333 3.0933,-1.4 4.88,-1.4 1.5467,0 2.88,0.3067 4,0.92 1.12,0.6133 1.9867,1.44 2.6,2.48 v -3.12 h 7.84 V 33 h -7.84 v -3.12 c -0.6133,1.04 -1.4933,1.8667 -2.64,2.48 -1.12,0.6133 -2.44,0.92 -3.96,0.92 -1.7867,0 -3.4133,-0.4667 -4.88,-1.4 -1.44,-0.9333 -2.5867,-2.2667 -3.44,-4 -0.8267,-1.76 -1.24,-3.8 -1.24,-6.12 z m 16.16,0 c 0,-1.44 -0.4,-2.5733 -1.2,-3.4 -0.7733,-0.8267 -1.7333,-1.24 -2.88,-1.24 -1.1733,0 -2.1467,0.4133 -2.92,1.24 -0.7733,0.8 -1.16,1.9333 -1.16,3.4 0,1.44 0.3867,2.5867 1.16,3.44 0.7733,0.8267 1.7467,1.24 2.92,1.24 1.1467,0 2.1067,-0.4133 2.88,-1.24 0.8,-0.8267 1.2,-1.9733 1.2,-3.44 z M 67.0722,3.4 V 33 h -7.84 V 3.4 Z m 15.2247,22.2 4.2,-15.04 h 8.36 L 87.1369,33 h -9.76 l -7.72,-22.44 h 8.36 z M 101.473,8.48 c -1.386,0 -2.5062,-0.37333 -3.3596,-1.12 -0.8266,-0.77333 -1.24,-1.73333 -1.24,-2.88 0,-1.17333 0.4134,-2.14667 1.24,-2.92 0.8534,-0.773335 1.9736,-1.160002 3.3596,-1.160002 1.36,0 2.454,0.386667 3.28,1.160002 0.854,0.77333 1.28,1.74667 1.28,2.92 0,1.14667 -0.426,2.10667 -1.28,2.88 -0.826,0.74667 -1.92,1.12 -3.28,1.12 z m 3.88,2.08 V 33 H 97.5134 V 10.56 Z m 19.145,-0.2 c 2.587,0 4.64,0.8667 6.16,2.6 1.52,1.7067 2.28,4.0267 2.28,6.96 V 33 h -7.84 V 20.96 c 0,-1.28 -0.333,-2.28 -1,-3 -0.667,-0.7467 -1.56,-1.12 -2.68,-1.12 -1.173,0 -2.093,0.3733 -2.76,1.12 -0.667,0.72 -1,1.72 -1,3 V 33 h -7.84 V 10.56 h 7.84 v 3.2 c 0.693,-1.0133 1.627,-1.8267 2.8,-2.44 1.173,-0.64 2.52,-0.96 4.04,-0.96 z M 44.2897,44.8 v 6.24 h -11.28 V 56 h 8.32 v 5.96 h -8.32 V 73 h -7.84 V 44.8 Z m 7.2619,3.68 c -1.3867,0 -2.5067,-0.3733 -3.36,-1.12 -0.8267,-0.7733 -1.24,-1.7333 -1.24,-2.88 0,-1.1733 0.4133,-2.1467 1.24,-2.92 0.8533,-0.7733 1.9733,-1.16 3.36,-1.16 1.36,0 2.4533,0.3867 3.28,1.16 0.8533,0.7733 1.28,1.7467 1.28,2.92 0,1.1467 -0.4267,2.1067 -1.28,2.88 -0.8267,0.7467 -1.92,1.12 -3.28,1.12 z m 3.88,2.08 V 73 h -7.84 V 50.56 Z m 19.1447,-0.2 c 2.5866,0 4.64,0.8667 6.16,2.6 1.52,1.7067 2.28,4.0267 2.28,6.96 V 73 h -7.84 V 60.96 c 0,-1.28 -0.3334,-2.28 -1,-3 -0.6667,-0.7467 -1.56,-1.12 -2.68,-1.12 -1.1734,0 -2.0934,0.3733 -2.76,1.12 -0.6667,0.72 -1,1.72 -1,3 V 73 h -7.84 V 50.56 h 7.84 v 3.2 c 0.6933,-1.0133 1.6266,-1.8267 2.8,-2.44 1.1733,-0.64 2.52,-0.96 4.04,-0.96 z m 11.4618,11.4 c 0,-2.32 0.4134,-4.3467 1.24,-6.08 0.8534,-1.7333 2.0134,-3.0667 3.48,-4 1.4667,-0.9333 3.0934,-1.4 4.88,-1.4 1.44,0 2.72,0.3067 3.84,0.92 1.1469,0.5867 2.0399,1.4 2.6799,2.44 V 43.4 h 7.88 V 73 h -7.88 v -3.12 c -0.613,1.04 -1.48,1.8667 -2.5999,2.48 -1.12,0.6133 -2.44,0.92 -3.96,0.92 -1.7866,0 -3.4133,-0.4667 -4.88,-1.4 -1.44,-0.9333 -2.5866,-2.2667 -3.44,-4 -0.8266,-1.76 -1.24,-3.8 -1.24,-6.12 z m 16.1599,0 c 0,-1.44 -0.4,-2.5733 -1.2,-3.4 -0.773,-0.8267 -1.7332,-1.24 -2.8799,-1.24 -1.1733,0 -2.1466,0.4133 -2.92,1.24 -0.7733,0.8 -1.16,1.9333 -1.16,3.4 0,1.44 0.3867,2.5867 1.16,3.44 0.7734,0.8267 1.7467,1.24 2.92,1.24 1.1467,0 2.1069,-0.4133 2.8799,-1.24 0.8,-0.8267 1.2,-1.9733 1.2,-3.44 z m 21.868,11.52 c -2.027,0 -3.84,-0.3333 -5.44,-1 -1.574,-0.6933 -2.827,-1.6267 -3.76,-2.8 -0.907,-1.2 -1.414,-2.5467 -1.52,-4.04 h 7.6 c 0.106,0.72 0.44,1.28 1,1.68 0.56,0.4 1.253,0.6 2.08,0.6 0.64,0 1.146,-0.1333 1.52,-0.4 0.373,-0.2667 0.56,-0.6133 0.56,-1.04 0,-0.56 -0.307,-0.9733 -0.92,-1.24 -0.614,-0.2667 -1.627,-0.56 -3.04,-0.88 -1.6,-0.32 -2.934,-0.68 -4,-1.08 -1.067,-0.4 -2,-1.0533 -2.8,-1.96 -0.774,-0.9067 -1.16,-2.1333 -1.16,-3.68 0,-1.3333 0.36,-2.5333 1.08,-3.6 0.72,-1.0933 1.773,-1.96 3.16,-2.6 1.413,-0.64 3.106,-0.96 5.08,-0.96 2.933,0 5.24,0.72 6.92,2.16 1.68,1.44 2.653,3.3333 2.92,5.68 h -7.08 c -0.134,-0.72 -0.454,-1.2667 -0.96,-1.64 -0.48,-0.4 -1.134,-0.6 -1.96,-0.6 -0.64,0 -1.134,0.12 -1.48,0.36 -0.32,0.24 -0.48,0.5733 -0.48,1 0,0.5333 0.306,0.9467 0.92,1.24 0.613,0.2667 1.6,0.5467 2.96,0.84 1.626,0.3467 2.973,0.7333 4.04,1.16 1.093,0.4267 2.04,1.12 2.84,2.08 0.826,0.9333 1.24,2.2133 1.24,3.84 0,1.3067 -0.387,2.48 -1.16,3.52 -0.747,1.04 -1.827,1.8667 -3.24,2.48 -1.387,0.5867 -3.027,0.88 -4.92,0.88 z"
       fill="#2f2e41"
       id="path1-3" /></g></svg>
